<svg xmlns="http://www.w3.org/2000/svg" width="9.748" height="9.748" viewBox="0 0 9.748 9.748"><defs><style>.a{fill:#919191;}</style></defs><path class="a" d="M13.748,4.325V7.249a.325.325,0,0,1-.65,0V5.109L8.454,9.753a.325.325,0,0,1-.459-.459L12.638,4.65H10.5a.325.325,0,1,1,0-.65h2.924a.325.325,0,0,1,.325.325Zm-1.3,8.448v-3.9a.325.325,0,0,0-.65,0v3.9a.325.325,0,0,1-.325.325h-6.5a.325.325,0,0,1-.325-.325v-6.5a.325.325,0,0,1,.325-.325h3.9a.325.325,0,0,0,0-.65h-3.9A.976.976,0,0,0,4,6.274v6.5a.976.976,0,0,0,.975.975h6.5A.976.976,0,0,0,12.448,12.773Z" transform="translate(-4 -4)"/></svg>