<svg xmlns="http://www.w3.org/2000/svg" width="33.457" height="33.457" viewBox="0 0 33.457 33.457"><defs><style>.a{fill:#1c364a;}</style></defs><path class="a" d="M5.884,25.873a2.728,2.728,0,0,0-1.318.336A15.428,15.428,0,0,1,19.8,1.613.654.654,0,0,0,20.058.332,16.853,16.853,0,0,0,16.728,0,16.728,16.728,0,0,0,3.6,27.1a2.746,2.746,0,1,0,2.285-1.222ZM6.9,29.634a1.437,1.437,0,1,1,.421-1.016A1.428,1.428,0,0,1,6.9,29.634Zm0,0" transform="translate(0)"/><path class="a" d="M214.436,36.317a2.739,2.739,0,1,0-.966.886,15.428,15.428,0,0,1-15.2,24.6.654.654,0,0,0-.257,1.282,16.864,16.864,0,0,0,3.3.325,16.728,16.728,0,0,0,13.128-27.1Zm-3.3-.5a1.438,1.438,0,1,1,1.016.421A1.428,1.428,0,0,1,211.135,35.812Zm0,0" transform="translate(-184.579 -29.956)"/><path class="a" d="M83.182,97.132a.654.654,0,0,0,.653.653h4.086a.653.653,0,0,0,.653-.653V95.865a10.233,10.233,0,0,0,2.452-1.016l.894.894a.653.653,0,0,0,.924,0l2.888-2.89a.654.654,0,0,0,0-.924l-.893-.893a10.233,10.233,0,0,0,1.016-2.452h1.262a.653.653,0,0,0,.653-.653V83.844a.653.653,0,0,0-.653-.653H95.856a10.235,10.235,0,0,0-1.016-2.452l.889-.889a.654.654,0,0,0,0-.925l-2.89-2.888a.653.653,0,0,0-.924,0l-.887.888a10.233,10.233,0,0,0-2.452-1.016V74.653A.653.653,0,0,0,87.921,74H83.835a.654.654,0,0,0-.653.653v1.255a10.224,10.224,0,0,0-2.452,1.016l-.888-.888a.654.654,0,0,0-.924,0l-2.89,2.888a.653.653,0,0,0,0,.924l.889.889A10.231,10.231,0,0,0,75.9,83.19H74.64a.653.653,0,0,0-.653.653l0,4.086a.653.653,0,0,0,.653.654H75.9a10.233,10.233,0,0,0,1.016,2.452l-.893.893a.653.653,0,0,0,0,.924l2.888,2.89a.654.654,0,0,0,.462.192h0a.653.653,0,0,0,.462-.191l.894-.894a10.241,10.241,0,0,0,2.452,1.016Zm-2.2-3.658a.654.654,0,0,0-.817.087l-.8.8-1.964-1.966.795-.8a.653.653,0,0,0,.087-.817,8.944,8.944,0,0,1-1.238-2.987.654.654,0,0,0-.639-.516H75.292l0-2.779h1.121a.653.653,0,0,0,.639-.516,8.945,8.945,0,0,1,1.238-2.987.653.653,0,0,0-.087-.817l-.79-.79,1.966-1.964.789.789a.654.654,0,0,0,.817.087,8.941,8.941,0,0,1,2.987-1.238.654.654,0,0,0,.516-.639V75.307h2.779v1.116a.653.653,0,0,0,.516.639A8.948,8.948,0,0,1,90.771,78.3a.653.653,0,0,0,.817-.087l.789-.789,1.966,1.964-.79.79a.653.653,0,0,0-.087.817A8.95,8.95,0,0,1,94.7,83.981a.653.653,0,0,0,.639.516h1.123v2.779H95.342a.654.654,0,0,0-.639.516,8.943,8.943,0,0,1-1.238,2.987.654.654,0,0,0,.087.817l.795.795-1.964,1.966-.8-.8a.653.653,0,0,0-.817-.087,8.95,8.95,0,0,1-2.987,1.238.653.653,0,0,0-.516.639v1.127H84.489V95.351a.654.654,0,0,0-.516-.639A8.945,8.945,0,0,1,80.985,93.475Zm0,0" transform="translate(-69.15 -69.164)"/><path class="a" d="M184.17,178.77a5.4,5.4,0,1,0-5.4,5.4A5.405,5.405,0,0,0,184.17,178.77Zm-9.492,0a4.092,4.092,0,1,1,4.092,4.092A4.1,4.1,0,0,1,174.678,178.77Zm0,0" transform="translate(-162.042 -162.042)"/><path class="a" d="M338.732,19.116a.654.654,0,1,0-.462-.191A.658.658,0,0,0,338.732,19.116Zm0,0" transform="translate(-315.986 -16.645)"/><path class="a" d="M155.013,474.359a.654.654,0,1,0,.462.191A.659.659,0,0,0,155.013,474.359Zm0,0" transform="translate(-144.273 -443.362)"/></svg>