<svg xmlns="http://www.w3.org/2000/svg" width="15.187" height="15.187" viewBox="0 0 15.187 15.187"><defs><style>.a{fill:none;}.b{fill:#fff;}</style></defs><g transform="translate(0 -0.001)"><g transform="translate(0 -0.015)"><circle class="a" cx="7.5" cy="7.5" r="7.5" transform="translate(0 0.203)"/><path class="b" d="M7.594,15.187A7.665,7.665,0,0,1,0,7.594,7.665,7.665,0,0,1,7.594,0a7.665,7.665,0,0,1,7.594,7.594A7.665,7.665,0,0,1,7.594,15.187Zm0-14.149a6.555,6.555,0,1,0,6.555,6.555A6.563,6.563,0,0,0,7.594,1.038Z" transform="translate(0 0.016)"/></g><g transform="translate(5.019 2.597)"><path class="b" d="M156.068,83.387v3.24h2.314s0-3.24,0-3.24h1.42L157.3,80l-2.652,3.387Z" transform="translate(-154.653 -80)"/><g transform="translate(1.009 7.792)"><path class="b" d="M185.743,320.106h3.132v1.038h-3.132Z" transform="translate(-185.743 -320.106)"/><path class="b" d="M198.345,372h2.314v1.038h-2.314Z" transform="translate(-197.936 -370.316)"/></g></g></g></svg>