<svg xmlns="http://www.w3.org/2000/svg" width="34.809" height="34.812" viewBox="0 0 34.809 34.812"><defs><style>.a{fill:#1c364a;stroke:#fff;stroke-width:0.75px;}</style></defs><g transform="translate(-0.625 -0.624)"><path class="a" d="M27.113,25.978H22.572a1.135,1.135,0,0,1,0-2.271h4.541a5.677,5.677,0,0,0,.95-11.267,1.135,1.135,0,0,1-.95-1.119,7.948,7.948,0,0,0-15.9-.1,1.135,1.135,0,0,1-1.135,1.135H8.948a5.677,5.677,0,0,0,0,11.354h4.541a1.135,1.135,0,1,1,0,2.271H8.948a7.948,7.948,0,0,1,0-15.9h.064a10.218,10.218,0,0,1,20.341.325,7.948,7.948,0,0,1-2.239,15.57Z" transform="translate(0 0)"/><path class="a" d="M22.021,16.874,17.48,12.333a1.135,1.135,0,0,0-1.605,0l-4.541,4.541a1.135,1.135,0,1,0,1.606,1.606l2.6-2.6v16.56a1.135,1.135,0,0,0,2.271,0V15.876l2.6,2.6a1.135,1.135,0,1,0,1.606-1.606Z" transform="translate(1.354 1.489)"/></g></svg>