<svg xmlns="http://www.w3.org/2000/svg" width="158.66" height="152.061" viewBox="0 0 158.66 152.061">
  <g id="Group_3724" data-name="Group 3724" transform="translate(0.125 0.125)">
    <path id="Path_3066" data-name="Path 3066" d="M74.569,73.4H29.8A19.164,19.164,0,0,1,27.31,35.293a27.2,27.2,0,0,1,50.533-6.937A22.68,22.68,0,0,1,74.569,73.4ZM53.9,20.6a21.015,21.015,0,0,0-20.56,18.277,3.3,3.3,0,0,1-3.267,2.845A12.543,12.543,0,0,0,29.8,66.8H74.569a16.065,16.065,0,0,0,.944-32.065,3.31,3.31,0,0,1-2.818-1.921A20.766,20.766,0,0,0,53.9,20.6Z" transform="translate(61.604 78.407)" fill="#959595" stroke="#959595" stroke-width="0.25"/>
    <path id="Path_3067" data-name="Path 3067" d="M56.1,138.61H16.5A16.516,16.516,0,0,1,0,122.109V16.5A16.516,16.516,0,0,1,16.5,0H89.106a16.516,16.516,0,0,1,16.5,16.5v59.4a3.3,3.3,0,1,1-6.6,0V16.5a9.913,9.913,0,0,0-9.9-9.9H16.5a9.913,9.913,0,0,0-9.9,9.9V122.109a9.913,9.913,0,0,0,9.9,9.9H56.1a3.3,3.3,0,0,1,0,6.6Z" transform="translate(0 0)" fill="#959595" stroke="#959595" stroke-width="0.25"/>
    <path id="Path_3068" data-name="Path 3068" d="M32.1,71a3.3,3.3,0,0,1-3.3-3.3V11.6H15.6V67.7a3.3,3.3,0,1,1-6.6,0V8.3A3.3,3.3,0,0,1,12.3,5H32.1a3.3,3.3,0,0,1,3.3,3.3V67.7A3.3,3.3,0,0,1,32.1,71Z" transform="translate(50.403 28.002)" fill="#959595" stroke="#959595" stroke-width="0.25"/>
    <path id="Path_3069" data-name="Path 3069" d="M26.1,48.6H6.3A3.3,3.3,0,0,1,3,45.3v-33A3.3,3.3,0,0,1,6.3,9H26.1a3.3,3.3,0,0,1,3.3,3.3v33A3.3,3.3,0,0,1,26.1,48.6ZM9.6,42H22.8V15.6H9.6Z" transform="translate(16.801 50.403)" fill="#959595" stroke="#959595" stroke-width="0.25"/>
    <path id="Path_3070" data-name="Path 3070" d="M71.3,20.6H5.3a3.3,3.3,0,1,1,0-6.6h66a3.3,3.3,0,0,1,0,6.6Z" transform="translate(11.201 78.407)" fill="#959595" stroke="#959595" stroke-width="0.25"/>
  </g>
</svg>
