<svg aria-hidden="true" style="position: absolute; width: 0; height: 0; overflow: hidden;" version="1.1" xmlns="http://www.w3.org/2000/svg" xmlns:xlink="http://www.w3.org/1999/xlink">
<defs>
<symbol id="icon-alert" viewBox="0 0 32 32">
<title>alert</title>
<path d="M29.183 23.203l-10.263-17.775c-0.593-1.013-1.677-1.683-2.917-1.683s-2.323 0.67-2.908 1.667l-0.009 0.016-10.269 17.775c-0.284 0.483-0.451 1.064-0.451 1.684 0 1.86 1.508 3.369 3.369 3.369 0.001 0 0.002 0 0.002 0h20.526c0.001 0 0.001 0 0.002 0 1.86 0 3.369-1.508 3.369-3.369 0-0.62-0.168-1.201-0.46-1.7l0.009 0.016zM27.234 25.448c-0.198 0.338-0.558 0.561-0.971 0.561h-20.532c-0.62-0.001-1.122-0.503-1.122-1.123 0-0.207 0.056-0.4 0.153-0.567l-0.003 0.005 10.269-17.775c0.199-0.331 0.557-0.55 0.966-0.55s0.766 0.218 0.963 0.545l0.003 0.005 10.274 17.775c0.098 0.16 0.157 0.354 0.157 0.561s-0.058 0.401-0.16 0.566l0.003-0.005z"></path>
<path d="M16 9.97c-0.62 0-1.123 0.503-1.123 1.123v0 7.81c0 0.62 0.503 1.123 1.123 1.123s1.123-0.503 1.123-1.123v0-7.81c0-0.62-0.503-1.123-1.123-1.123v0z"></path>
<path d="M16 21.075c-0.62 0-1.123 0.503-1.123 1.123v0 0.393c0 0.62 0.503 1.123 1.123 1.123s1.123-0.503 1.123-1.123v0-0.393c0-0.62-0.503-1.123-1.123-1.123v0z"></path>
</symbol>
<symbol id="icon-apps" viewBox="0 0 32 32">
<title>apps</title>
<path d="M29.536 7.099l-0.097-0.051-0.112-0.061-12.967-4.921c-0.107-0.041-0.23-0.065-0.359-0.065s-0.253 0.024-0.366 0.068l0.007-0.002-12.972 4.916c-0.084 0.032-0.156 0.072-0.222 0.119l0.003-0.002c-0.27 0.184-0.446 0.489-0.449 0.836v15.874c0 0 0 0.001 0 0.001 0 0.427 0.263 0.793 0.636 0.945l0.007 0.002 12.978 5.171c0.113 0.044 0.245 0.070 0.382 0.071h0c0.131-0.003 0.255-0.031 0.369-0.079l-0.007 0.003 12.993-5.166c0.38-0.154 0.642-0.52 0.642-0.947 0-0 0-0.001 0-0.001v0-15.874c-0.007-0.349-0.188-0.655-0.46-0.834l-0.004-0.002zM16.003 4.111l10.163 3.85-10.163 4.049-10.168-4.049zM4.040 9.439l10.943 4.36v13.697l-10.943-4.38zM27.96 23.116l-10.938 4.38v-13.697l10.938-4.36z"></path>
</symbol>
<symbol id="icon-briefcase" viewBox="0 0 32 32">
<title>briefcase</title>
<path d="M27.059 7.277h-5.62v-1.078c0-1.879-1.524-3.403-3.403-3.403v0h-4.072c-1.879 0-3.403 1.524-3.403 3.403v0 1.078h-5.62c-1.566 0-2.836 1.27-2.836 2.836v0 4.912c0.003 0.642 0.272 1.221 0.702 1.633l0.001 0.001s0 0.045 0 0.068v9.642c0 1.566 1.27 2.836 2.836 2.836v0h20.724c1.566 0 2.836-1.27 2.836-2.836v0-9.642s0-0.045 0-0.068c0.427-0.413 0.692-0.991 0.692-1.631 0-0.001 0-0.002 0-0.002v0-4.912c0-1.566-1.27-2.836-2.836-2.836v0zM12.83 6.2c0-0.626 0.508-1.134 1.134-1.134v0h4.072c0.626 0 1.134 0.508 1.134 1.134v0 1.078h-6.341zM4.373 10.113c0-0.313 0.254-0.567 0.567-0.567v0h22.119c0.313 0 0.567 0.254 0.567 0.567v0 4.912h-8.224v-1.134c0-0.626-0.508-1.134-1.134-1.134v0h-4.537c-0.626 0-1.134 0.508-1.134 1.134v0 1.134h-8.224zM26.935 26.39c0 0.313-0.254 0.567-0.567 0.567v0h-20.729c-0.313 0-0.567-0.254-0.567-0.567v0-9.074h7.526v1.134c0 0.626 0.508 1.134 1.134 1.134v0h4.537c0.626 0 1.134-0.508 1.134-1.134v0-1.134h7.532z"></path>
</symbol>
<symbol id="icon-caret-left" viewBox="0 0 32 32">
<title>caret-left</title>
<path d="M23.889 28.593v-25.187c-0.007-0.876-0.718-1.583-1.595-1.583-0.437 0-0.834 0.176-1.122 0.461l-12.602 12.602c-0.284 0.285-0.46 0.679-0.46 1.113s0.176 0.828 0.46 1.113l12.602 12.602c0.288 0.285 0.684 0.461 1.122 0.461 0.877 0 1.588-0.707 1.595-1.582v-0.001z"></path>
</symbol>
<symbol id="icon-caret-right" viewBox="0 0 32 32">
<title>caret-right</title>
<path d="M10.811 29.716l12.603-12.603c0.293-0.281 0.475-0.676 0.475-1.113s-0.182-0.832-0.474-1.113l-0.001-0.001-12.603-12.603c-0.286-0.289-0.683-0.468-1.122-0.468-0.871 0-1.578 0.706-1.578 1.578 0 0.004 0 0.009 0 0.013v-0.001 25.188c-0 0.004-0 0.008-0 0.013 0 0.871 0.706 1.578 1.578 1.578 0.439 0 0.836-0.179 1.122-0.468l0-0z"></path>
</symbol>
<symbol id="icon-caret-down" viewBox="0 0 32 32">
<title>caret-down</title>
<path d="M2.089 10.737l12.782 12.782c0.285 0.297 0.685 0.481 1.129 0.481s0.844-0.184 1.128-0.481l0-0.001 12.782-12.782c0.293-0.29 0.475-0.693 0.475-1.138 0-0.884-0.716-1.6-1.6-1.6-0.005 0-0.009 0-0.014 0h-25.546c-0.004-0-0.008-0-0.013-0-0.884 0-1.6 0.716-1.6 1.6 0 0.445 0.182 0.848 0.475 1.138l0 0z"></path>
</symbol>
<symbol id="icon-caret-up" viewBox="0 0 32 32">
<title>caret-up</title>
<path d="M3.226 24.002h25.547c0.888-0.007 1.606-0.729 1.606-1.618 0-0.444-0.179-0.846-0.468-1.138l-12.782-12.782c-0.289-0.288-0.688-0.466-1.129-0.466s-0.84 0.178-1.129 0.466l-12.783 12.783c-0.289 0.292-0.468 0.694-0.468 1.138 0 0.889 0.717 1.611 1.605 1.618h0.001z"></path>
</symbol>
<symbol id="icon-check" viewBox="0 0 32 32">
<title>check</title>
<path d="M16 30c-7.732 0-14-6.268-14-14s6.268-14 14-14c7.732 0 14 6.268 14 14v0c-0.012 7.727-6.273 13.988-13.999 14h-0.001zM16 4.036c-6.607 0-11.964 5.356-11.964 11.964s5.356 11.964 11.964 11.964c6.607 0 11.964-5.356 11.964-11.964v0c-0.006-6.605-5.359-11.958-11.963-11.964h-0.001z"></path>
<path d="M15.063 20.052c-0.281-0.001-0.534-0.116-0.718-0.3l-3.645-3.645c-0.164-0.18-0.265-0.421-0.265-0.685 0-0.562 0.456-1.018 1.018-1.018 0.263 0 0.503 0.1 0.683 0.263l-0.001-0.001 2.953 2.948 6.832-6.409c0.182-0.171 0.427-0.276 0.697-0.276 0.563 0 1.019 0.456 1.019 1.019 0 0.293-0.124 0.557-0.321 0.743l-0.001 0.001-7.57 7.087c-0.178 0.167-0.418 0.271-0.681 0.275h-0.001z"></path>
</symbol>
<symbol id="icon-checkbox-rev" viewBox="0 0 32 32">
<title>checkbox-rev</title>
<path d="M11.561 14.284c-0.185-0.185-0.44-0.299-0.722-0.299-0.564 0-1.020 0.457-1.020 1.020 0 0.282 0.114 0.537 0.299 0.722v0l3.656 3.651c0.184 0.185 0.438 0.3 0.719 0.301h0.026c0.294-0.007 0.557-0.137 0.739-0.341l0.001-0.001 13.131-14.456c0.164-0.18 0.265-0.421 0.265-0.686 0-0.297-0.127-0.565-0.331-0.752l-0.001-0.001c-0.179-0.16-0.417-0.258-0.678-0.258-0.304 0-0.577 0.133-0.764 0.344l-0.001 0.001-12.422 13.651z"></path>
<path d="M28.98 11.689c-0.563 0-1.020 0.457-1.020 1.020v0 13.411c0 1.031-0.836 1.866-1.866 1.866v0h-20.188c-0 0-0 0-0 0-1.031 0-1.866-0.836-1.866-1.866 0-0.009 0-0.018 0-0.027l-0 0.001v-20.188c0-1.031 0.836-1.866 1.866-1.866v0h17.2c0.563 0 1.020-0.457 1.020-1.020s-0.457-1.020-1.020-1.020v0h-17.2c-2.157 0-3.906 1.749-3.906 3.906v0 20.188c0 2.157 1.749 3.906 3.906 3.906v0h20.188c2.157 0 3.906-1.749 3.906-3.906v0-13.386c0-0.563-0.457-1.020-1.020-1.020v0z"></path>
</symbol>
<symbol id="icon-checkbox" viewBox="0 0 32 32">
<title>checkbox</title>
<path d="M26.431 30h-20.861c-1.971 0-3.569-1.598-3.569-3.569v0-20.861c0-1.971 1.598-3.569 3.569-3.569v0h20.861c1.971 0 3.569 1.598 3.569 3.569v0 20.861c0 1.971-1.598 3.569-3.569 3.569v0zM5.569 4.040c-0.845 0-1.53 0.685-1.53 1.53v0 20.861c0 0.845 0.685 1.53 1.53 1.53v0h20.861c0.845 0 1.53-0.685 1.53-1.53v0-20.861c0-0.845-0.685-1.53-1.53-1.53v0z"></path>
</symbol>
<symbol id="icon-circle-rev" viewBox="0 0 32 32">
<title>circle-rev</title>
<path d="M30 16c0 7.732-6.268 14-14 14s-14-6.268-14-14c0-7.732 6.268-14 14-14s14 6.268 14 14z"></path>
</symbol>
<symbol id="icon-circle" viewBox="0 0 32 32">
<title>circle</title>
<path d="M16 30c-7.732 0-14-6.268-14-14s6.268-14 14-14c7.732 0 14 6.268 14 14v0c0 7.732-6.268 14-14 14v0zM16 4.074c-6.587 0-11.926 5.339-11.926 11.926s5.339 11.926 11.926 11.926c6.587 0 11.926-5.339 11.926-11.926v0c0-6.587-5.339-11.926-11.926-11.926v0z"></path>
</symbol>
<symbol id="icon-close" viewBox="0 0 32 32">
<title>close</title>
<path fill="#000" style="fill: var(--color1, #000)" d="M30 16c0 7.732-6.268 14-14 14s-14-6.268-14-14c0-7.732 6.268-14 14-14s14 6.268 14 14z"></path>
<path fill="#fff" style="fill: var(--color2, #fff)" d="M22.211 12.309l-2.52-2.52-3.691 3.691-3.691-3.691-2.52 2.52 3.691 3.691-3.691 3.691 2.52 2.52 3.691-3.691 3.691 3.691 2.52-2.52-3.691-3.691 3.691-3.691z"></path>
</symbol>
<symbol id="icon-contact-us" viewBox="0 0 32 32">
<title>contact-us</title>
<path d="M16 2c-7.732 0-14 6.268-14 14s6.268 14 14 14c7.732 0 14-6.268 14-14v0c-0.012-7.727-6.273-13.988-13.999-14h-0.001zM16 27.964c-6.607 0-11.964-5.356-11.964-11.964s5.356-11.964 11.964-11.964c6.607 0 11.964 5.356 11.964 11.964v0c-0.006 6.605-5.359 11.958-11.963 11.964h-0.001z"></path>
<path d="M22.389 13.928c-0.562 0-1.018 0.456-1.018 1.018v0 4.46h-10.716v-4.46c0-0.562-0.456-1.018-1.018-1.018s-1.018 0.456-1.018 1.018v0 4.969c0 0.843 0.684 1.527 1.527 1.527v0h11.76c0.843 0 1.527-0.684 1.527-1.527v0-4.969c0-0 0-0 0-0 0-0.562-0.456-1.018-1.018-1.018-0.009 0-0.018 0-0.027 0l0.001-0z"></path>
<path d="M22.389 10.558h-12.753c-0.001 0-0.001 0-0.002 0-0.562 0-1.018 0.456-1.018 1.018 0 0.335 0.162 0.632 0.411 0.818l0.003 0.002 6.389 4.709c0.167 0.125 0.378 0.2 0.606 0.2s0.439-0.075 0.608-0.202l-0.003 0.002 6.389-4.709c0.252-0.187 0.414-0.485 0.414-0.82 0-0.562-0.456-1.018-1.018-1.018-0.001 0-0.001 0-0.002 0h0zM16 15.017l-3.309-2.423h6.618z"></path>
</symbol>
<symbol id="icon-dashboard" viewBox="0 0 32 32">
<title>dashboard</title>
<path d="M9.045 4.338h-5.652c-0.58 0-1.051 0.47-1.051 1.051v0 5.652c0 0.58 0.47 1.051 1.051 1.051v0h5.652c0.58 0 1.051-0.47 1.051-1.051v0-5.652c0-0.58-0.47-1.051-1.051-1.051v0zM7.995 9.991h-3.551v-3.551h3.551z"></path>
<path d="M9.045 13.957h-5.652c-0.58 0-1.051 0.47-1.051 1.051v0 11.604c0 0.58 0.47 1.051 1.051 1.051v0h5.652c0.58 0 1.051-0.47 1.051-1.051v0-11.604c0-0.58-0.47-1.051-1.051-1.051v0zM7.995 25.56h-3.551v-9.503h3.551z"></path>
<path d="M28.607 19.903h-5.652c-0.58 0-1.051 0.47-1.051 1.051v0 5.657c0 0.58 0.47 1.051 1.051 1.051v0h5.652c0.58 0 1.051-0.47 1.051-1.051v0-5.657c0-0.58-0.47-1.051-1.051-1.051v0zM27.556 25.56h-3.551v-3.556h3.551z"></path>
<path d="M28.607 4.338h-5.652c-0.58 0-1.051 0.47-1.051 1.051v0 11.604c0 0.58 0.47 1.051 1.051 1.051v0h5.652c0.58 0 1.051-0.47 1.051-1.051v0-11.604c0-0.58-0.47-1.051-1.051-1.051v0zM27.556 15.942h-3.551v-9.503h3.551z"></path>
<path d="M19.057 17.098h-5.652c-0.58 0-1.051 0.47-1.051 1.051v0 8.462c0 0.58 0.47 1.051 1.051 1.051v0h5.652c0.58 0 1.051-0.47 1.051-1.051v0-8.462c0-0.58-0.47-1.051-1.051-1.051v0zM18.007 25.56h-3.551v-6.361h3.551z"></path>
<path d="M19.057 4.338h-5.652c-0.58 0-1.051 0.47-1.051 1.051v0 8.462c0 0.58 0.47 1.051 1.051 1.051v0h5.652c0.58 0 1.051-0.47 1.051-1.051v0-8.462c0-0.58-0.47-1.051-1.051-1.051v0zM18.007 12.801h-3.551v-6.361h3.551z"></path>
</symbol>
<symbol id="icon-date" viewBox="0 0 32 32">
<title>date</title>
<path d="M27.654 6.943h-2.839v-0.84c-0.003-1.546-1.256-2.799-2.802-2.802h-0.133c-1.547 0-2.802 1.254-2.802 2.802v0 0.84h-6.157v-0.84c0-1.547-1.254-2.802-2.802-2.802h-0.133c-1.546 0.003-2.799 1.256-2.802 2.802v0.84h-2.839c0 0 0 0 0 0-1.196 0-2.166 0.968-2.169 2.164v17.422c0 1.198 0.971 2.169 2.169 2.169v0h23.308c1.198 0 2.169-0.971 2.169-2.169v0-17.422c-0.003-1.196-0.973-2.164-2.169-2.164 0 0 0 0 0 0v0zM21.205 6.103c0-0.373 0.302-0.675 0.675-0.675v0h0.133c0.373 0 0.675 0.302 0.675 0.675v0 3.807c0 0.373-0.302 0.675-0.675 0.675h-0.133c-0.373 0-0.675-0.302-0.675-0.675v0zM9.312 6.103c0-0.373 0.302-0.675 0.675-0.675v0h0.133c0.373 0 0.675 0.302 0.675 0.675v0 3.807c0 0.373-0.302 0.675-0.675 0.675v0h-0.133c-0.373 0-0.675-0.302-0.675-0.675v0zM4.346 9.070h2.839v0.84c0.003 1.546 1.256 2.799 2.801 2.802h0.133c1.546-0.003 2.799-1.256 2.802-2.801v-0.84h6.157v0.84c0.003 1.546 1.256 2.799 2.802 2.802h0.133c1.546-0.003 2.799-1.256 2.802-2.802v-0.84h2.839c0.002-0 0.003-0 0.005-0 0.021 0 0.037 0.017 0.037 0.037 0 0 0 0 0 0v-0 3.817h-23.393v-3.817c0-0 0-0 0-0 0-0.021 0.017-0.037 0.037-0.037 0.002 0 0.004 0 0.006 0l-0-0zM27.654 26.572h-23.308c-0.024 0-0.043-0.019-0.043-0.043v-11.478h23.393v11.478c0 0.023-0.019 0.043-0.043 0.043v0z"></path>
</symbol>
<symbol id="icon-e-mail" viewBox="0 0 32 32">
<title>e-mail</title>
<path d="M28.19 10.479c-0.561 0-1.016 0.455-1.016 1.016v0 11.926h-22.348v-11.926c0-0.561-0.455-1.016-1.016-1.016s-1.016 0.455-1.016 1.016v0 11.972c0.003 1.096 0.89 1.983 1.986 1.986h22.44c1.097 0 1.986-0.889 1.986-1.986v0-11.972c0-0.561-0.455-1.016-1.016-1.016v0z"></path>
<path d="M15.396 17.361c0.167 0.125 0.377 0.199 0.604 0.199s0.438-0.075 0.607-0.201l-0.003 0.002 12.19-8.98c0.252-0.187 0.413-0.484 0.413-0.818 0-0.561-0.455-1.016-1.016-1.016-0.001 0-0.001 0-0.002 0h-24.38c-0.001 0-0.001 0-0.002 0-0.561 0-1.016 0.455-1.016 1.016 0 0.334 0.161 0.631 0.41 0.816l0.003 0.002zM25.097 8.579l-9.097 6.699-9.097-6.699z"></path>
</symbol>
<symbol id="icon-favourite-rev" viewBox="0 0 32 32">
<title>favourite-rev</title>
<path d="M16.597 2.197l4.061 8.277c0.095 0.186 0.273 0.319 0.484 0.35l0.004 0 9.135 1.332c0.314 0.050 0.551 0.318 0.551 0.642 0 0.181-0.074 0.345-0.193 0.462l-0 0-6.581 6.445c-0.122 0.118-0.197 0.283-0.197 0.466 0 0.037 0.003 0.074 0.009 0.109l-0.001-0.004 1.559 9.096c0.006 0.034 0.010 0.073 0.010 0.114 0 0.359-0.291 0.65-0.65 0.65-0.111 0-0.215-0.028-0.306-0.076l0.003 0.002-8.167-4.294c-0.088-0.047-0.192-0.075-0.302-0.075s-0.214 0.028-0.306 0.076l0.004-0.002-8.173 4.294c-0.088 0.047-0.192 0.075-0.302 0.075-0.359 0-0.65-0.291-0.65-0.65 0-0.040 0.004-0.079 0.011-0.118l-0.001 0.004 1.559-9.096c0.006-0.033 0.010-0.072 0.010-0.111 0-0.18-0.073-0.343-0.191-0.461l-0-0-6.614-6.445c-0.119-0.118-0.192-0.281-0.192-0.462 0-0.326 0.24-0.596 0.553-0.643l0.004-0 9.135-1.332c0.214-0.032 0.392-0.164 0.486-0.347l0.002-0.004 4.113-8.277c0.113-0.201 0.325-0.335 0.568-0.335s0.456 0.134 0.567 0.332l0.002 0.003z"></path>
</symbol>
<symbol id="icon-favourite" viewBox="0 0 32 32">
<title>favourite</title>
<path d="M24.5 30.266c-0.196-0.002-0.38-0.050-0.541-0.135l0.006 0.003-7.994-4.204-7.994 4.204c-0.155 0.083-0.339 0.132-0.534 0.132-0.253 0-0.487-0.082-0.677-0.22l0.003 0.002c-0.289-0.212-0.475-0.55-0.475-0.931 0-0.077 0.008-0.153 0.022-0.226l-0.001 0.007 1.524-8.903-6.476-6.28c-0.214-0.209-0.347-0.5-0.347-0.823 0-0.577 0.425-1.055 0.979-1.138l0.006-0.001 8.943-1.3 4.026-8.104c0.193-0.381 0.581-0.637 1.029-0.637s0.837 0.256 1.026 0.631l0.003 0.007 4.026 8.104 8.943 1.3c0.56 0.084 0.985 0.561 0.985 1.138 0 0.322-0.133 0.614-0.346 0.823l-0 0-6.47 6.326 1.53 8.903c0.011 0.059 0.017 0.127 0.017 0.196 0 0.635-0.515 1.15-1.15 1.15-0.006 0-0.012-0-0.018-0h0.001zM15.971 23.479c0.196 0 0.38 0.049 0.541 0.135l-0.006-0.003 6.47 3.405-1.254-7.206c-0.011-0.059-0.017-0.127-0.017-0.197 0-0.322 0.132-0.612 0.345-0.821l0-0 5.234-5.101-7.212-1.053c-0.384-0.057-0.701-0.297-0.865-0.626l-0.003-0.007-3.232-6.545-3.232 6.551c-0.169 0.334-0.486 0.571-0.862 0.626l-0.006 0.001-7.229 1.053 5.234 5.101c0.222 0.21 0.36 0.507 0.36 0.835 0 0.064-0.005 0.128-0.015 0.189l0.001-0.007-1.254 7.206 6.47-3.399c0.155-0.085 0.339-0.136 0.534-0.138h0.001z"></path>
</symbol>
<symbol id="icon-help" viewBox="0 0 32 32">
<title>help</title>
<path d="M16 1.997c-7.734 0-14.003 6.269-14.003 14.003s6.269 14.003 14.003 14.003c7.734 0 14.003-6.269 14.003-14.003 0-0.002 0-0.004 0-0.005v0c-0.012-7.728-6.275-13.989-14.002-13.998h-0.001zM16 27.958c-6.607 0-11.963-5.356-11.963-11.963s5.356-11.963 11.963-11.963c6.607 0 11.963 5.356 11.963 11.963v0c-0.006 6.605-5.358 11.957-11.963 11.963h-0.001z"></path>
<path d="M16 20.941c-0.563 0-1.020 0.457-1.020 1.020v0 0.291c0 0.563 0.457 1.020 1.020 1.020s1.020-0.457 1.020-1.020v0-0.291c0-0.563-0.457-1.020-1.020-1.020v0z"></path>
<path d="M16 8.723c-2.393 0.003-4.332 1.942-4.335 4.334v0c0 0.563 0.457 1.020 1.020 1.020s1.020-0.457 1.020-1.020v0c0-1.267 1.027-2.295 2.295-2.295s2.295 1.027 2.295 2.295c0 1.267-1.027 2.295-2.295 2.295v0c-0.563 0-1.020 0.457-1.020 1.020v0 2.851c0 0.563 0.457 1.020 1.020 1.020s1.020-0.457 1.020-1.020v0-1.928c1.915-0.477 3.312-2.181 3.312-4.212 0-2.393-1.939-4.333-4.332-4.335h-0z"></path>
</symbol>
<symbol id="icon-home-rev" viewBox="0 0 32 32">
<title>home-rev</title>
<path d="M24.913 27.509h-5.458c-0.579 0-1.049-0.469-1.049-1.049v0-4.367h-4.813v4.367c0 0.579-0.469 1.049-1.049 1.049v0h-5.458c-0.579 0-1.049-0.469-1.049-1.049v0-8.158h-2.621c-0.001 0-0.001 0-0.002 0-0.579 0-1.049-0.469-1.049-1.049 0-0.304 0.13-0.578 0.337-0.77l0.001-0.001 12.583-11.712c0.187-0.173 0.437-0.28 0.713-0.28s0.527 0.106 0.714 0.28l-0.001-0.001 12.583 11.712c0.208 0.192 0.338 0.466 0.338 0.771 0 0.579-0.469 1.049-1.049 1.049-0.001 0-0.001 0-0.002 0h-2.621v8.158c0 0.579-0.469 1.049-1.049 1.049v0zM20.519 25.412h3.345v-8.158c0-0.579 0.469-1.049 1.049-1.049v0h1.049l-9.961-9.238-9.919 9.238h1.007c0.579 0 1.049 0.469 1.049 1.049v0 8.158h3.345v-4.367c0-0.579 0.469-1.049 1.049-1.049v0h6.926c0.579 0 1.049 0.469 1.049 1.049v0z"></path>
</symbol>
<symbol id="icon-home" viewBox="0 0 32 32">
<title>home</title>
<path d="M21.325 23.301h-3.251c-0.573 0-1.037-0.464-1.037-1.037v0-2.204h-2.074v2.204c0 0.573-0.464 1.037-1.037 1.037v0h-3.251c-0.573 0-1.037-0.464-1.037-1.037v0-4.475h-1.172c-0.569-0.005-1.028-0.467-1.028-1.037 0-0.296 0.124-0.563 0.322-0.751l0-0 7.534-7.021c0.184-0.171 0.433-0.277 0.705-0.277s0.521 0.105 0.706 0.277l-0.001-0.001 7.534 7.021c0.202 0.19 0.328 0.459 0.328 0.757 0 0.572-0.462 1.035-1.033 1.037h-1.172v4.475c-0.003 0.57-0.466 1.032-1.037 1.032 0 0 0 0 0 0v0zM19.106 21.227h1.182v-4.475c0-0 0-0.001 0-0.001 0-0.444 0.279-0.823 0.672-0.971l0.007-0.002-4.967-4.62-4.967 4.62c0.4 0.15 0.679 0.529 0.679 0.973 0 0.001 0 0.001 0 0.002v-0 4.475h1.177v-2.204c0-0.573 0.464-1.037 1.037-1.037v0h4.148c0.573 0 1.037 0.464 1.037 1.037v0z"></path>
<path d="M16 30c-7.732 0-14-6.268-14-14s6.268-14 14-14c7.732 0 14 6.268 14 14v0c0 7.732-6.268 14-14 14v0zM16 4.074c-6.587 0-11.926 5.339-11.926 11.926s5.339 11.926 11.926 11.926c6.587 0 11.926-5.339 11.926-11.926v0c0-6.587-5.339-11.926-11.926-11.926v0z"></path>
</symbol>
<symbol id="icon-login" viewBox="0 0 32 32">
<title>login</title>
<path d="M30.177 15.191l-5.748-5.726c-0.194-0.167-0.448-0.268-0.726-0.268-0.616 0-1.116 0.5-1.116 1.116 0 0.278 0.102 0.532 0.27 0.727l-0.001-0.001 3.84 3.845h-5.798c-0.579-4.877-4.689-8.622-9.674-8.622-5.378 0-9.738 4.36-9.738 9.738s4.36 9.738 9.738 9.738c4.985 0 9.095-3.746 9.67-8.576l0.004-0.046h5.798l-3.84 3.845c-0.18 0.197-0.29 0.461-0.29 0.751 0 0.616 0.5 1.116 1.116 1.116 0.288 0 0.551-0.109 0.749-0.289l-0.001 0.001 5.748-5.748c0.209-0.203 0.339-0.487 0.339-0.801s-0.13-0.598-0.338-0.801l-0-0zM11.203 23.484c-4.14-0.007-7.493-3.365-7.493-7.506 0-4.146 3.361-7.506 7.506-7.506 3.76 0 6.874 2.764 7.421 6.371l0.005 0.042h-7.417c-0.616 0-1.116 0.5-1.116 1.116s0.5 1.116 1.116 1.116v0h7.417c-0.564 3.634-3.669 6.384-7.416 6.39h-0.001z"></path>
</symbol>
<symbol id="icon-minus" viewBox="0 0 32 32">
<title>minus</title>
<path d="M16 2c-7.732 0-14 6.268-14 14s6.268 14 14 14c7.732 0 14-6.268 14-14v0c0-7.732-6.268-14-14-14v0zM20.667 17.037h-9.333c-0.573 0-1.037-0.464-1.037-1.037s0.464-1.037 1.037-1.037v0h9.333c0.573 0 1.037 0.464 1.037 1.037s-0.464 1.037-1.037 1.037v0z"></path>
</symbol>
<symbol id="icon-plus" viewBox="0 0 32 32">
<title>plus</title>
<path d="M16 2c-7.732 0-14 6.268-14 14s6.268 14 14 14c7.732 0 14-6.268 14-14v0c0-7.732-6.268-14-14-14v0zM20.667 17.037h-3.63v3.63c0 0.573-0.464 1.037-1.037 1.037s-1.037-0.464-1.037-1.037v0-3.63h-3.63c-0.573 0-1.037-0.464-1.037-1.037s0.464-1.037 1.037-1.037v0h3.63v-3.63c0-0.573 0.464-1.037 1.037-1.037s1.037 0.464 1.037 1.037v0 3.63h3.63c0.573 0 1.037 0.464 1.037 1.037s-0.464 1.037-1.037 1.037v0z"></path>
</symbol>
<symbol id="icon-policies" viewBox="0 0 32 32">
<title>policies</title>
<path d="M26.586 8.626c-0.014-0.055-0.029-0.1-0.046-0.143l0.003 0.009v-0.065c0-0.048-0.048-0.092-0.075-0.14 0-0.006 0.001-0.014 0.001-0.022s-0-0.015-0.001-0.023l0 0.001c-0.040-0.063-0.085-0.118-0.135-0.167l-0-0-5.799-5.756c-0.049-0.050-0.104-0.094-0.163-0.132l-0.004-0.002-0.043-0.027-0.14-0.075h-0.065l-0.135-0.081c-0.032-0.004-0.070-0.006-0.108-0.006s-0.075 0.002-0.112 0.006l0.005-0h-13.3c-0.595 0-1.077 0.482-1.077 1.077v0 25.847c0 0.595 0.482 1.077 1.077 1.077v0h19.062c0.595 0 1.077-0.482 1.077-1.077v0-20.085c0-0.003 0-0.007 0-0.011 0-0.072-0.008-0.143-0.023-0.211l0.001 0.006zM20.846 5.68l2.084 2.084h-2.084zM7.546 27.85v-23.693h11.146v4.685c0 0.595 0.482 1.077 1.077 1.077v0h4.685v17.931z"></path>
<path d="M21.32 21.425h-10.64c-0.595 0-1.077 0.482-1.077 1.077s0.482 1.077 1.077 1.077v0h10.64c0.595 0 1.077-0.482 1.077-1.077s-0.482-1.077-1.077-1.077v0z"></path>
<path d="M10.68 19.234h6.155c0.595 0 1.077-0.482 1.077-1.077s-0.482-1.077-1.077-1.077v0h-6.155c-0.595 0-1.077 0.482-1.077 1.077s0.482 1.077 1.077 1.077v0z"></path>
<path d="M21.32 12.772h-10.64c-0.595 0-1.077 0.482-1.077 1.077s0.482 1.077 1.077 1.077v0h10.64c0.595 0 1.077-0.482 1.077-1.077s-0.482-1.077-1.077-1.077v0z"></path>
</symbol>
<symbol id="icon-setting" viewBox="0 0 32 32">
<title>setting</title>
<path d="M29.233 22.15c-0.038-0.059-0.080-0.11-0.128-0.156l-0-0-10.055-10.055c0.046-0.322 0.073-0.693 0.073-1.071 0-0.016-0-0.033-0-0.049v0.002c0-0.007 0-0.014 0-0.022 0-4.708-3.816-8.524-8.524-8.524-0.010 0-0.020 0-0.029 0h0.002c-0.008-0-0.017-0-0.027-0-1.377 0-2.677 0.33-3.825 0.916l0.048-0.022c-0.317 0.161-0.543 0.459-0.602 0.815l-0.001 0.007c-0.009 0.053-0.014 0.114-0.014 0.177 0 0.308 0.125 0.588 0.327 0.79v0l3.474 3.463-1.257 1.251-3.609-3.586c-0.202-0.202-0.481-0.327-0.79-0.327-0.394 0-0.741 0.204-0.939 0.512l-0.003 0.004c-0.813 1.274-1.296 2.828-1.296 4.494 0 0.007 0 0.014 0 0.020v-0.001c0.006 4.699 3.814 8.507 8.512 8.513h0.001c0.648-0.001 1.278-0.072 1.885-0.206l-0.058 0.011 9.798 9.753c0.547 0.536 1.297 0.866 2.124 0.866 0.011 0 0.022-0 0.033-0l-0.002 0c0.972-0.006 1.849-0.407 2.48-1.050l2.073-2.073c0.641-0.604 1.040-1.458 1.040-2.406 0-0.776-0.268-1.49-0.716-2.053l0.005 0.007zM27.328 25.027l-2.072 2.072c-0.206 0.233-0.505 0.379-0.839 0.379-0.243 0-0.467-0.077-0.65-0.209l0.003 0.002-10.25-10.2c-0.202-0.2-0.48-0.324-0.787-0.324-0.118 0-0.232 0.018-0.339 0.052l0.008-0.002c-0.549 0.17-1.181 0.268-1.836 0.268-0.001 0-0.001 0-0.002 0h0c-3.465-0.007-6.272-2.818-6.272-6.284 0-0.718 0.12-1.407 0.342-2.050l-0.013 0.044 3.285 3.279c0.202 0.201 0.48 0.325 0.788 0.325s0.586-0.124 0.788-0.325l-0 0 2.838-2.832c0.215-0.202 0.349-0.487 0.352-0.804v-0.001c-0.001-0.308-0.127-0.586-0.33-0.788l-3.022-3c0.373-0.078 0.801-0.123 1.24-0.123 3.468 0 6.282 2.802 6.301 6.266v0.002c0 0.001 0 0.002 0 0.002 0 0.444-0.047 0.877-0.136 1.295l0.007-0.041c-0.014 0.067-0.023 0.145-0.023 0.224 0 0.31 0.126 0.59 0.33 0.793l0 0 10.463 10.491c0.129 0.18 0.206 0.404 0.206 0.647 0 0.334-0.146 0.633-0.378 0.838l-0.001 0.001z"></path>
</symbol>
<symbol id="icon-shortcut" viewBox="0 0 32 32">
<title>shortcut</title>
<path d="M12.586 15.144h4.27v4.27c0 0.595 0.482 1.077 1.077 1.077s1.077-0.482 1.077-1.077v0-4.27h4.27c0.595 0 1.077-0.482 1.077-1.077s-0.482-1.077-1.077-1.077v0h-4.27v-4.27c0-0.595-0.482-1.077-1.077-1.077s-1.077 0.482-1.077 1.077v0 4.27h-4.27c-0.595 0-1.077 0.482-1.077 1.077s0.482 1.077 1.077 1.077v0z"></path>
<path d="M28.923 2h-21.985c-0.595 0-1.077 0.482-1.077 1.077v0 21.985c0 0.595 0.482 1.077 1.077 1.077v0h21.985c0.595 0 1.077-0.482 1.077-1.077v0-21.985c0-0.595-0.482-1.077-1.077-1.077v0zM27.846 23.985h-19.832v-19.832h19.832z"></path>
<path d="M24.465 27.846h-20.311v-20.311c0-0.595-0.482-1.077-1.077-1.077s-1.077 0.482-1.077 1.077v0 21.388c0 0.595 0.482 1.077 1.077 1.077v0h21.388c0.595 0 1.077-0.482 1.077-1.077s-0.482-1.077-1.077-1.077v0z"></path>
</symbol>
<symbol id="icon-down" viewBox="0 0 32 32">
<title>down</title>
<path d="M15.945 24.322c-0.005 0-0.010 0-0.015 0-1.17 0-2.228-0.477-2.991-1.248l-0-0-10.149-10.164c-0.54-0.544-0.874-1.293-0.874-2.12s0.334-1.576 0.875-2.12l-0 0c0.544-0.54 1.293-0.874 2.12-0.874s1.576 0.334 2.12 0.875l-0-0 8.916 8.901 8.901-8.901c0.552-0.61 1.348-0.992 2.232-0.992 1.661 0 3.007 1.346 3.007 3.007 0 0.881-0.378 1.673-0.982 2.223l-0.002 0.002-10.134 10.134c-0.766 0.789-1.836 1.278-3.021 1.278-0 0-0.001 0-0.001 0h0z"></path>
</symbol>
<symbol id="icon-up" viewBox="0 0 32 32">
<title>up</title>
<path d="M26.988 24.254c-0.001 0-0.002 0-0.002 0-0.833 0-1.586-0.339-2.131-0.886l-0-0-8.893-8.908-8.908 8.893c-0.53 0.48-1.238 0.774-2.013 0.774-1.659 0-3.004-1.345-3.004-3.004 0-0.78 0.297-1.49 0.784-2.024l-0.002 0.002 10.11-10.125c0.772-0.761 1.834-1.231 3.004-1.231s2.232 0.47 3.005 1.232l-0.001-0.001 10.125 10.125c0.558 0.546 0.904 1.307 0.904 2.148 0 1.65-1.33 2.989-2.976 3.004h-0.001z"></path>
</symbol>
<symbol id="icon-left" viewBox="0 0 32 32">
<title>left</title>
<path d="M21.141 29.672c-0.001 0-0.002 0-0.002 0-0.815 0-1.552-0.331-2.084-0.867l-0-0-9.918-9.903c-0.744-0.756-1.204-1.793-1.204-2.939s0.46-2.183 1.205-2.939l-0.001 0.001 9.903-9.932c0.52-0.474 1.215-0.765 1.977-0.765 1.623 0 2.939 1.316 2.939 2.939 0 0.759-0.288 1.45-0.76 1.972l0.002-0.003-8.698 8.713 8.698 8.698c0.537 0.533 0.869 1.271 0.869 2.086 0 1.619-1.309 2.932-2.926 2.939h-0.001z"></path>
</symbol>
<symbol id="icon-right" viewBox="0 0 32 32">
<title>right</title>
<path d="M10.875 29.723c-0.81-0.004-1.543-0.334-2.073-0.867l-0-0c-0.533-0.532-0.862-1.268-0.862-2.080s0.33-1.548 0.862-2.080l8.702-8.702-8.702-8.717c-0.528-0.531-0.855-1.264-0.855-2.073s0.327-1.541 0.855-2.073l-0 0c0.531-0.528 1.264-0.855 2.073-0.855s1.541 0.327 2.073 0.855l-0-0 9.908 9.893c0.745 0.756 1.205 1.794 1.205 2.94s-0.46 2.184-1.205 2.94l0-0.001-9.908 9.952c-0.53 0.533-1.262 0.864-2.072 0.867h-0.001z"></path>
</symbol>
<symbol id="icon-user" viewBox="0 0 32 32">
<title>user</title>
<path d="M27.706 20.952l-0.047-0.031c-1.093-0.703-2.382-1.206-3.767-1.422l-0.056-0.007h-0.063c-0.752-0.070-1.436-0.306-2.034-0.669l0.021 0.012c-0.161-0.101-0.274-0.267-0.302-0.461l-0-0.003c-0.003-0.020-0.005-0.044-0.005-0.067 0-0.123 0.047-0.235 0.125-0.319l-0 0 0.089-0.099c2.608-3.218 2.206-7.88 1.893-9.773-0.717-3.503-3.769-6.102-7.43-6.112h-0.241c-3.666 0.017-6.718 2.627-7.418 6.089l-0.008 0.049c-0.308 1.851-0.741 6.514 1.898 9.737l0.078 0.089c0.083 0.085 0.135 0.202 0.135 0.331 0 0.023-0.002 0.045-0.005 0.068l0-0.003c-0.028 0.197-0.141 0.363-0.3 0.463l-0.003 0.002c-0.577 0.351-1.261 0.587-1.994 0.656l-0.019 0.001h-0.063c-1.45 0.223-2.749 0.729-3.888 1.463l0.039-0.024-0.052 0.031c-3.030 2.159-2.639 6.3-2.529 7.124l0.162 1.043c0.081 0.502 0.511 0.881 1.030 0.881 0.004 0 0.009-0 0.013-0h26.075c0.004 0 0.008 0 0.013 0 0.519 0 0.949-0.379 1.030-0.875l0.001-0.006 0.162-1.043c0.026-0.188 0.678-4.845-2.54-7.124zM28.181 27.768l-0.026 0.146h-24.308v-0.13c-0.052-0.365-0.422-3.614 1.653-5.116 0.848-0.54 1.846-0.93 2.917-1.105l0.046-0.006c1.070-0.105 2.043-0.442 2.893-0.961l-0.030 0.017c0.705-0.426 1.196-1.145 1.307-1.983l0.002-0.014c0.013-0.098 0.021-0.211 0.021-0.325 0-0.684-0.27-1.305-0.71-1.761l0.001 0.001c-2.086-2.566-1.684-6.472-1.429-8.005 0.515-2.537 2.721-4.423 5.37-4.438h0.221c0.001 0 0.002 0 0.004 0 2.645 0 4.855 1.867 5.382 4.355l0.006 0.036c0.261 1.565 0.636 5.481-1.424 8.042-0.441 0.459-0.713 1.084-0.713 1.773 0 0.11 0.007 0.219 0.021 0.326l-0.001-0.013c0.115 0.848 0.601 1.563 1.287 1.985l0.012 0.007c0.821 0.499 1.793 0.836 2.834 0.942l0.029 0.002c1.12 0.18 2.122 0.57 3.005 1.13l-0.033-0.019c2.164 1.575 1.664 5.085 1.664 5.116z"></path>
</symbol>
<symbol id="icon-close_1" viewBox="0 0 32 32">
<title>close_1</title>
<path d="M18.068 16l11.544-11.551c0.215-0.249 0.345-0.576 0.345-0.934 0-0.793-0.643-1.436-1.436-1.436-0.357 0-0.685 0.131-0.936 0.347l0.002-0.002-11.551 11.544-11.551-11.544c-0.26-0.258-0.617-0.417-1.012-0.417s-0.753 0.159-1.012 0.418l0-0c-0.258 0.26-0.417 0.617-0.417 1.012s0.159 0.753 0.418 1.012l11.544 11.551-11.544 11.551c-0.258 0.26-0.417 0.617-0.417 1.012s0.159 0.753 0.418 1.012l-0-0c0.26 0.258 0.617 0.418 1.012 0.418s0.753-0.159 1.012-0.418l11.551-11.544 11.551 11.544c0.249 0.215 0.576 0.345 0.934 0.345 0.793 0 1.436-0.643 1.436-1.436 0-0.357-0.131-0.685-0.347-0.936l0.002 0.002z"></path>
</symbol>
<symbol id="icon-info" viewBox="0 0 32 32">
<title>info</title>
<path d="M16.005 1.997c-0.002 0-0.003 0-0.005 0-7.734 0-14.003 6.269-14.003 14.003s6.269 14.003 14.003 14.003c7.734 0 14.003-6.269 14.003-14.003 0-0.002 0-0.004 0-0.005v0c-0.012-7.726-6.272-13.986-13.997-13.998h-0.001zM17.025 22.772c0 0.563-0.457 1.020-1.020 1.020s-1.020-0.457-1.020-1.020v0-9.179c0-0.563 0.457-1.020 1.020-1.020s1.020 0.457 1.020 1.020v0zM17.025 10.161c0 0.563-0.457 1.020-1.020 1.020s-1.020-0.457-1.020-1.020v0-0.291c0-0.563 0.457-1.020 1.020-1.020s1.020 0.457 1.020 1.020v0z"></path>
</symbol>
<symbol id="icon-Pencil" viewBox="0 0 32 32">
<title>Pencil</title>
<path d="M29.603 6.712l-4.263-4.451c-0.169-0.163-0.399-0.264-0.653-0.264-0.001 0-0.003 0-0.004 0h0c-0.237 0.001-0.451 0.099-0.605 0.256l-19.611 20.063v0.051c-0.065 0.072-0.117 0.157-0.152 0.25l-0.002 0.005-2.115 6.25c-0.029 0.082-0.045 0.176-0.045 0.274 0 0.471 0.382 0.853 0.853 0.853 0.016 0 0.032-0 0.047-0.001l-0.002 0c0.035 0.004 0.075 0.006 0.115 0.006s0.081-0.002 0.12-0.007l-0.005 0 6.472-1.85s0 0 0.051 0 0.043 0 0.068 0c0.092-0.043 0.17-0.098 0.239-0.162l-0 0 19.491-20.080c0.151-0.154 0.244-0.364 0.244-0.597s-0.093-0.443-0.244-0.597l0 0zM5.464 24.489l2.379 2.387-3.513 0.998z"></path>
</symbol>

</defs>
</svg>
