<svg xmlns="http://www.w3.org/2000/svg" width="30.924" height="30.924" viewBox="0 0 30.924 30.924">
  <g id="Page-1" transform="translate(-0.5 -0.5)">
    <g id="home" transform="translate(1 1)">
      <path id="Stroke-832" d="M29.924,14.962A14.962,14.962,0,1,1,14.962,0,14.962,14.962,0,0,1,29.924,14.962Z" fill="none" stroke="#095999" stroke-width="1" fill-rule="evenodd"/>
      <path id="Stroke-834" d="M28.027,30.066H24.2a.319.319,0,0,1-.319-.319V26.241H20.695v3.506a.319.319,0,0,1-.319.319H16.551a.319.319,0,0,1-.319-.319V23.053H14.206a.319.319,0,0,1-.207-.56l8.083-6.932a.318.318,0,0,1,.415,0l8.083,6.932a.319.319,0,0,1-.208.56H28.345v6.694a.319.319,0,0,1-.319.319" transform="translate(-7.007 -7.813)" fill="none" stroke="#095999" stroke-linecap="round" stroke-linejoin="round" stroke-width="1" fill-rule="evenodd"/>
    </g>
  </g>
</svg>
