<?xml version="1.0" encoding="UTF-8"?>
<svg width="63px" height="63px" viewBox="0 0 63 63" version="1.1" xmlns="http://www.w3.org/2000/svg" xmlns:xlink="http://www.w3.org/1999/xlink">
    <!-- Generator: Sketch 60 (88103) - https://sketch.com -->
    <title>Slice 1</title>
    <desc>Created with Sketch.</desc>
    <g id="Page-1" stroke="none" stroke-width="1" fill="none" fill-rule="evenodd">
        <g id="home" transform="translate(1.000000, 1.000000)" stroke="#ED1A3D" stroke-width="1.75">
            <path d="M60.4038987,30.2019494 C60.4038987,46.8819747 46.8819747,60.4038987 30.2019494,60.4038987 C13.5226962,60.4038987 0,46.8819747 0,30.2019494 C0,13.5219241 13.5226962,0 30.2019494,0 C46.8819747,0 60.4038987,13.5219241 60.4038987,30.2019494 Z" id="Stroke-832"></path>
            <path d="M42.4288203,44.9203228 L34.7073013,44.9203228 C34.3513392,44.9203228 34.0633266,44.6323101 34.0633266,44.2763481 L34.0633266,37.1988038 L27.6289848,37.1988038 L27.6289848,44.2763481 C27.6289848,44.6323101 27.3409722,44.9203228 26.9857823,44.9203228 L19.2642633,44.9203228 C18.9083013,44.9203228 18.6202886,44.6323101 18.6202886,44.2763481 L18.6202886,30.7636899 L14.5302,30.7636899 C14.2614911,30.7636899 14.0198076,30.5961329 13.9271494,30.3436392 C13.833719,30.0919177 13.9070734,29.8077658 14.1116937,29.6324873 L30.4272633,15.6387785 C30.6689468,15.4318418 31.0241367,15.4318418 31.2650481,15.6387785 L47.5813899,29.6324873 C47.785238,29.8077658 47.8593646,30.0919177 47.765162,30.3436392 C47.6725038,30.5961329 47.4315924,30.7636899 47.1621114,30.7636899 L43.0720228,30.7636899 L43.0720228,44.2763481 C43.0720228,44.6323101 42.7840101,44.9203228 42.4288203,44.9203228" id="Stroke-834" stroke-linecap="round" stroke-linejoin="round"></path>
        </g>
    </g>
</svg>