<?xml version="1.0" encoding="UTF-8"?>
<svg width="63px" height="63px" viewBox="0 0 63 63" version="1.1" xmlns="http://www.w3.org/2000/svg" xmlns:xlink="http://www.w3.org/1999/xlink">
    <!-- Generator: Sketch 60 (88103) - https://sketch.com -->
    <title>Slice 1</title>
    <desc>Created with Sketch.</desc>
    <g id="Page-1" stroke="none" stroke-width="1" fill="none" fill-rule="evenodd">
        <g id="mail" transform="translate(1.000000, 1.000000)" stroke="#ED1A3D" stroke-width="1.75">
            <path d="M60.4038987,30.2019494 C60.4038987,46.8819747 46.8819747,60.4038987 30.2019494,60.4038987 C13.5226962,60.4038987 0,46.8819747 0,30.2019494 C0,13.5219241 13.5226962,0 30.2019494,0 C46.8819747,0 60.4038987,13.5219241 60.4038987,30.2019494 Z" id="Stroke-832"></path>
            <path d="M46.1111111,24.6666667 L46.1111111,38.7959635 C46.1111111,40.0131812 45.0918778,41 43.8346777,41 L17.2764334,41 C16.0192333,41 15,40.0131812 15,38.7959635 L15,24.6666667" id="Stroke-1517" stroke-linecap="round"></path>
            <path d="M29.6587552,32.2750271 L15.3299923,21.4794308 C14.6946471,21.0007296 15.0381346,20 15.8377565,20 L44.4952823,20 C45.2953308,20 45.6388183,21.0007296 45.0030464,21.4794308 L30.6742835,32.2750271 C30.3747454,32.5009169 29.9587201,32.5009169 29.6587552,32.2750271 Z" id="Stroke-1518" stroke-linecap="round"></path>
        </g>
    </g>
</svg>