<svg xmlns="http://www.w3.org/2000/svg" width="31.059" height="31.059" viewBox="0 0 31.059 31.059">
  <g id="Page-1" transform="translate(-0.5 -0.5)">
    <g id="mail" transform="translate(1 1)">
      <path id="Stroke-832" d="M30.059,15.029A15.029,15.029,0,1,1,15.029,0,15.029,15.029,0,0,1,30.059,15.029Z" fill="none" stroke="#095999" stroke-width="1" fill-rule="evenodd"/>
      <path id="Stroke-1517" d="M30.482,24.667V31.7a1.115,1.115,0,0,1-1.133,1.1H16.133A1.115,1.115,0,0,1,15,31.7V24.667" transform="translate(-7.536 -12.392)" fill="none" stroke="#095999" stroke-linecap="round" stroke-width="1" fill-rule="evenodd"/>
      <path id="Stroke-1518" d="M22.295,26.108l-7.13-5.372A.409.409,0,0,1,15.417,20H29.678a.409.409,0,0,1,.253.736L22.8,26.108A.421.421,0,0,1,22.295,26.108Z" transform="translate(-7.536 -10.047)" fill="none" stroke="#095999" stroke-linecap="round" stroke-width="1" fill-rule="evenodd"/>
    </g>
  </g>
</svg>
